<?xml version="1.0" encoding="utf-8"?>
<!-- Generator: Adobe Illustrator 16.0.0, SVG Export Plug-In . SVG Version: 6.00 Build 0)  -->
<!DOCTYPE svg PUBLIC "-//W3C//DTD SVG 1.1//EN" "http://www.w3.org/Graphics/SVG/1.1/DTD/svg11.dtd">
<svg version="1.1" id="Layer_1" xmlns="http://www.w3.org/2000/svg" xmlns:xlink="http://www.w3.org/1999/xlink" x="0px" y="0px"
	 width="50px" height="50px" viewBox="0 0 50 50" enable-background="new 0 0 50 50" xml:space="preserve">
<g>
	<g>
		<path fill="#747474" d="M37.661,47.126c-1.682-0.36-3.385-0.554-4.95-1.082c-6.018-2.053-11.859-4.528-16.752-8.755
			C9.974,32.017,5.129,25.85,1.713,18.683c-1.63-3.48-2.162-7.111-1.015-10.803c0.786-2.666,2.223-4.959,4.41-6.755
			c2.069-1.669,4.433-1.256,6.71-0.765c0.428,0.058,0.855,0.602,1.028,1.029c1.338,3.318,2.653,6.662,3.988,9.983
			c0.421,0.996,0.262,1.944-0.386,2.792c-0.93,1.24-1.931,2.467-2.989,3.646c-0.749,0.874-0.816,1.606-0.258,2.578
			c3.739,6.551,9.024,11.499,16.066,14.597c1.491,0.652,2.022,0.597,3.178-0.629c1.294-1.349,2.51-2.674,3.702-4.116
			c0.724-0.822,1.56-1.07,2.517-0.595c3.52,1.763,7.008,3.558,10.486,5.412c0.313,0.166,0.55,0.689,0.55,1.105
			c0.08,3.976-1.34,7.1-5.143,9.029c-2.187,1.085-4.387,1.817-6.854,1.673C37.672,46.932,37.661,47.009,37.661,47.126z"/>
	</g>
</g>
</svg>
