<?xml version="1.0" encoding="utf-8"?>
<!-- Generator: Adobe Illustrator 16.0.0, SVG Export Plug-In . SVG Version: 6.00 Build 0)  -->
<!DOCTYPE svg PUBLIC "-//W3C//DTD SVG 1.1//EN" "http://www.w3.org/Graphics/SVG/1.1/DTD/svg11.dtd">
<svg version="1.1" id="Layer_1" xmlns="http://www.w3.org/2000/svg" xmlns:xlink="http://www.w3.org/1999/xlink" x="0px" y="0px"
	 width="50px" height="50px" viewBox="0 0 50 50" enable-background="new 0 0 50 50" xml:space="preserve">
<path fill="#747474" d="M41.712,11.382C38.355,4.557,32.568,1.241,25.055,0.87c-1.027,0.094-2.012,0.14-2.984,0.286
	C8.108,3.263,1.404,19.717,10.002,30.947c4.56,5.955,9.349,11.744,14.038,17.6c0.614,0.764,1.187,0.78,1.787,0.031
	c4.711-5.883,9.558-11.665,14.079-17.689C44.436,24.855,45.036,18.145,41.712,11.382z M24.872,13.158
	c3.671-0.035,6.563,2.806,6.585,6.46c0.018,3.667-2.832,6.553-6.483,6.558c-3.667,0.012-6.539-2.848-6.533-6.507
	C18.443,16.038,21.254,13.192,24.872,13.158z"/>
</svg>
