<?xml version="1.0" encoding="utf-8"?>
<!-- Generator: Adobe Illustrator 16.0.0, SVG Export Plug-In . SVG Version: 6.00 Build 0)  -->
<!DOCTYPE svg PUBLIC "-//W3C//DTD SVG 1.1//EN" "http://www.w3.org/Graphics/SVG/1.1/DTD/svg11.dtd">
<svg version="1.1" id="Layer_1" xmlns="http://www.w3.org/2000/svg" xmlns:xlink="http://www.w3.org/1999/xlink" x="0px" y="0px"
	 width="50px" height="50px" viewBox="0 0 50 50" enable-background="new 0 0 50 50" xml:space="preserve">
<g>
	<path fill="#747474" d="M47.984,15.517c-2.139-5.363-5.68-9.482-10.692-12.311C32.424,0.452,27.2-0.487,21.696,0.368
		C15.827,1.27,10.89,4.039,7.045,8.614C2.151,14.412,0.45,21.143,1.6,28.618c0.444,2.765,1.443,5.36,2.804,7.817
		c0.21,0.357,0.215,0.676,0.087,1.061c-0.956,2.805-1.878,5.583-2.803,8.384c-0.441,1.319-0.871,2.649-1.331,4.058
		c0.23-0.08,0.359-0.096,0.487-0.139C4.913,48.495,9,47.182,13.067,45.868c0.436-0.146,0.807-0.132,1.228,0.094
		c2.347,1.152,4.793,2.038,7.376,2.399c6.103,0.867,11.82-0.191,16.966-3.662c6.725-4.52,10.412-10.893,10.951-19.006
		C49.827,22.195,49.282,18.776,47.984,15.517z M31.979,36.588c-0.834-0.184-1.679-0.283-2.455-0.553
		c-2.985-1.049-5.882-2.314-8.312-4.475c-2.971-2.695-5.374-5.848-7.069-9.511c-0.809-1.779-1.072-3.635-0.503-5.521
		c0.39-1.363,1.103-2.535,2.188-3.453c1.027-0.853,2.2-0.642,3.329-0.391c0.212,0.03,0.424,0.307,0.51,0.526
		c0.664,1.696,1.317,3.405,1.979,5.102c0.209,0.509,0.13,0.994-0.192,1.427c-0.462,0.635-0.958,1.262-1.483,1.864
		c-0.371,0.447-0.405,0.822-0.128,1.318c1.855,3.35,4.477,5.877,7.972,7.461c0.74,0.333,1.004,0.307,1.576-0.32
		c0.644-0.688,1.246-1.365,1.838-2.104c0.358-0.421,0.772-0.548,1.248-0.306c1.746,0.9,3.478,1.818,5.203,2.767
		c0.154,0.084,0.272,0.354,0.272,0.563c0.041,2.031-0.664,3.629-2.552,4.615c-1.084,0.555-2.176,0.93-3.399,0.854
		C31.984,36.488,31.979,36.527,31.979,36.588z"/>
</g>
</svg>
