<?xml version="1.0" encoding="utf-8"?>
<!-- Generator: Adobe Illustrator 16.0.0, SVG Export Plug-In . SVG Version: 6.00 Build 0)  -->
<!DOCTYPE svg PUBLIC "-//W3C//DTD SVG 1.1//EN" "http://www.w3.org/Graphics/SVG/1.1/DTD/svg11.dtd">
<svg version="1.1" id="Layer_1" xmlns="http://www.w3.org/2000/svg" xmlns:xlink="http://www.w3.org/1999/xlink" x="0px" y="0px"
	 width="95.607px" height="21.187px" viewBox="0.093 4.382 95.607 21.187" enable-background="new 0.093 4.382 95.607 21.187"
	 xml:space="preserve">
<g>
	<g>
		
			<image display="none" overflow="visible" enable-background="new    " width="1037" height="415" xlink:href="2F64FB1B.jpg"  transform="matrix(0.0134 0 0 0.0124 43.4087 10.5869)">
		</image>
		<g>
			
				<radialGradient id="SVGID_1_" cx="371.667" cy="-267.9321" r="10.6038" gradientTransform="matrix(1 0 0 -1 -360.96 -252.957)" gradientUnits="userSpaceOnUse">
				<stop  offset="0" style="stop-color:#008D37"/>
				<stop  offset="1" style="stop-color:#2D7E2C"/>
			</radialGradient>
			<path fill="url(#SVGID_1_)" d="M21.322,23.551V6.018c0,0-0.042-1.592-1.723-1.636H1.858c0,0-1.765,0.129-1.765,1.938v17.569
				c0,0,0.172,1.68,1.721,1.68h4.695l4.088-3.658l3.62,3.658h7.105L10.733,14.502l-4.869,4.866c0,0-0.453,0.321-0.453-0.185
				l-0.023-8.748c0,0,0-0.807,0.884-0.786c0,0,8.347-0.03,9.09-0.021c0.236,0.002,0.686,0.07,0.665,0.673v7.626L21.322,23.551z"/>
			<g>
				<polygon fill="#959594" points="8.082,25.568 10.597,23.33 12.797,25.568 				"/>
			</g>
		</g>
		<g>
			<path fill="#00572D" d="M44.507,8.831c0,0-5.302,0.002-7.152,0.002c-2.488,0-6.014,0.932-6.013,5.168c0,0.743,0,1.44,0,2.069
				c0,4.021,3.586,5.033,6.013,5.033c2.05,0,7.152-0.006,7.152-0.006l0.008-2.15c0,0-5.482,0-7.16,0
				c-2.913,0-3.733-1.715-3.739-3.051c-0.002-0.485,0.015-1.254,0.026-1.792c0.028-1.338,0.829-3.083,3.713-3.083h7.152V8.831
				L44.507,8.831z"/>
			<polygon fill="#00572D" points="57.172,21.1 57.172,18.975 48.682,18.975 48.682,16.014 56.66,16.014 56.673,13.833 
				48.682,13.846 48.682,10.94 57.172,10.94 57.172,8.831 46.571,8.831 46.571,21.1 			"/>
			<path fill="#00572D" d="M59.596,21.1c0,0-0.021-8.82,0-11.584c0.004-0.484,0.94-1.325,1.909-0.327l8.263,8.149V8.831h2.094
				c0,0-0.016,9.595,0,11.839c0.005,0.466-0.797,0.969-1.864,0.029l-8.157-8.042L61.797,21.1H59.596z"/>
			<polygon fill="#00572D" points="75.096,21.1 75.096,8.831 77.262,8.831 77.262,21.107 			"/>
			<path fill="#00572D" d="M93.932,19.432c0,0,1.769-1.145,1.769-3.533c0-1.681,0-1.278,0-1.792c0-2.461-1.638-5.273-5.636-5.273
				c0,0-3.643,0-4.785,0c-3.709,0-5.426,2.812-5.426,5.273c0,0,0,1.236,0,1.792c0,2.389,1.563,5.201,5.414,5.201l4.797,0.006
				c0,0,1.36-0.021,1.93-0.362l0.416,0.366l3.29-0.01L93.932,19.432z M93.414,15.898c0,1.36-0.879,1.908-0.879,1.908L92.08,17.38
				l-3.257,0.002l1.546,1.565h-5.092c-1.85,0-3.182-1.163-3.172-3.163c0.004-0.313-0.01-1.276-0.01-1.678
				c0-1.729,1.443-3.083,3.182-3.083c1.134,0,4.785,0,4.785,0c2.07,0,3.352,1.369,3.352,3.083
				C93.414,14.701,93.414,15.466,93.414,15.898z"/>
		</g>
	</g>
</g>
</svg>
