<?xml version="1.0" encoding="utf-8"?>
<!-- Generator: Adobe Illustrator 16.0.0, SVG Export Plug-In . SVG Version: 6.00 Build 0)  -->
<!DOCTYPE svg PUBLIC "-//W3C//DTD SVG 1.1//EN" "http://www.w3.org/Graphics/SVG/1.1/DTD/svg11.dtd">
<svg version="1.1" id="Layer_1" xmlns="http://www.w3.org/2000/svg" xmlns:xlink="http://www.w3.org/1999/xlink" x="0px" y="0px"
	 width="58.764px" height="40.036px" viewBox="0.321 11.041 58.764 40.036" enable-background="new 0.321 11.041 58.764 40.036"
	 xml:space="preserve">
<g>
	<g>
		
			<image display="none" overflow="visible" width="960" height="354" xlink:href="C77EC694.jpg"  transform="matrix(0.0132 0 0 0.0132 12.999 41.3594)">
		</image>
		<g>
			<path fill="#FFFFFF" d="M39.396,28.543V12.534c0,0-0.039-1.454-1.572-1.493H21.623c0,0-1.612,0.118-1.612,1.77v16.042
				c0,0,0.158,1.534,1.572,1.534h4.287l3.734-3.341l3.305,3.341h6.487l-9.669-10.104l-4.446,4.443c0,0-0.413,0.293-0.413-0.167
				l-0.021-7.988c0,0,0-0.737,0.808-0.717c0,0,7.622-0.028,8.3-0.02c0.216,0.002,0.626,0.064,0.607,0.615v6.963L39.396,28.543z"/>
			<g>
				<polygon fill="#FFFFFF" points="27.305,30.385 29.603,28.342 31.611,30.385 				"/>
			</g>
		</g>
		<g>
			<path fill="#FFFFFF" d="M12.342,39.756c0,0-4.841,0.003-6.53,0.003c-2.272,0-5.491,0.851-5.491,4.719c0,0.679,0,1.316,0,1.891
				c0,3.672,3.274,4.596,5.491,4.596c1.872,0,6.53-0.006,6.53-0.006l0.007-1.965c0,0-5.006,0-6.538,0
				c-2.66,0-3.409-1.564-3.414-2.784c-0.002-0.444,0.014-1.146,0.024-1.636c0.025-1.222,0.757-2.814,3.39-2.814h6.53V39.756z"/>
			<polygon fill="#FFFFFF" points="23.906,50.958 23.906,49.019 16.154,49.019 16.154,46.313 23.439,46.313 23.451,44.323 
				16.154,44.335 16.154,41.682 23.906,41.682 23.906,39.756 14.227,39.756 14.227,50.958 			"/>
			<path fill="#FFFFFF" d="M26.12,50.958c0,0-0.02-8.053,0-10.578c0.002-0.441,0.858-1.209,1.743-0.298l7.543,7.44v-7.767h1.913
				c0,0-0.016,8.761,0,10.81c0.003,0.426-0.728,0.885-1.703,0.027l-7.449-7.344l-0.038,7.709H26.12z"/>
			<polygon fill="#FFFFFF" points="40.272,50.958 40.272,39.756 42.25,39.756 42.25,50.966 			"/>
			<path fill="#FFFFFF" d="M57.471,49.435c0,0,1.614-1.045,1.614-3.226c0-1.534,0-1.168,0-1.636c0-2.248-1.495-4.814-5.146-4.814
				c0,0-3.325,0-4.369,0c-3.387,0-4.954,2.566-4.954,4.814c0,0,0,1.129,0,1.636c0,2.181,1.427,4.749,4.943,4.749l4.38,0.006
				c0,0,1.242-0.02,1.762-0.332l0.38,0.334l3.004-0.008L57.471,49.435z M56.998,46.209c0,1.243-0.802,1.743-0.802,1.743l-0.416-0.39
				l-2.974,0.002l1.411,1.429H49.57c-1.689,0-2.905-1.061-2.896-2.887c0.003-0.287-0.009-1.166-0.009-1.533
				c0-1.579,1.317-2.814,2.905-2.814c1.034,0,4.369,0,4.369,0c1.89,0,3.059,1.25,3.059,2.814
				C56.998,45.116,56.998,45.813,56.998,46.209z"/>
		</g>
	</g>
</g>
</svg>
